<svg width="512" height="512" viewBox="38 45 430 420" fill="none" xmlns="http://www.w3.org/2000/svg">
<path d="M347.484 114.876C326.487 99.4896 302.237 89.1305 276.604 84.5975C250.971 80.0644 224.639 81.4785 199.638 88.7307C174.638 95.9829 151.637 108.88 132.408 126.426C113.18 143.973 98.2382 165.701 88.7346 189.935C79.231 214.169 75.4196 240.262 77.5943 266.202C79.769 292.142 87.8717 317.236 101.278 339.55C114.684 361.864 133.035 380.8 154.916 394.901C176.798 409.001 201.625 417.888 227.484 420.876" stroke="white" stroke-width="20" stroke-linecap="round" stroke-linejoin="round"/>
<path d="M81.484 250.876H151.484L181.484 214.876L221.484 314.876L261.484 144.876L301.484 344.876L336.484 214.876L361.484 250.876H401.484" stroke="white" stroke-width="20" stroke-linecap="round" stroke-linejoin="round"/>
<path d="M416.484 268.876C426.425 268.876 434.484 260.817 434.484 250.876C434.484 240.935 426.425 232.876 416.484 232.876C406.543 232.876 398.484 240.935 398.484 250.876C398.484 260.817 406.543 268.876 416.484 268.876Z" fill="white"/>
<path d="M281.484 421.876V415.876C281.484 410.906 277.455 406.876 272.484 406.876C267.513 406.876 263.484 410.906 263.484 415.876V421.876C263.484 426.847 267.513 430.876 272.484 430.876C277.455 430.876 281.484 426.847 281.484 421.876Z" fill="white"/>
<path d="M314.484 421.876V395.876C314.484 390.906 310.455 386.876 305.484 386.876C300.513 386.876 296.484 390.906 296.484 395.876V421.876C296.484 426.847 300.513 430.876 305.484 430.876C310.455 430.876 314.484 426.847 314.484 421.876Z" fill="white"/>
<path d="M347.484 421.876V370.876C347.484 365.906 343.455 361.876 338.484 361.876C333.513 361.876 329.484 365.906 329.484 370.876V421.876C329.484 426.847 333.513 430.876 338.484 430.876C343.455 430.876 347.484 426.847 347.484 421.876Z" fill="white"/>
<path d="M380.484 421.876V335.876C380.484 330.906 376.455 326.876 371.484 326.876C366.513 326.876 362.484 330.906 362.484 335.876V421.876C362.484 426.847 366.513 430.876 371.484 430.876C376.455 430.876 380.484 426.847 380.484 421.876Z" fill="white"/>
<path d="M413.484 421.876V299.876C413.484 294.906 409.455 290.876 404.484 290.876C399.513 290.876 395.484 294.906 395.484 299.876V421.876C395.484 426.847 399.513 430.876 404.484 430.876C409.455 430.876 413.484 426.847 413.484 421.876Z" fill="white"/>
</svg>
